# xmcd
#
# Track frame offsets:
#	150
#	16025
#	33127
#	48279
#	62015
#	78768
#	94650
#	112664
#	128206
#	147445
#	160761
#	177145
#	194465
#	209851
#	228760
#	244142
#	256568
#	265979
#
# Disc length: 3842
#
# Revision: 1
# Processed by: cddbd v1.5.1PL0 Copyright (c) Steve Scherf et al.
# Submitted via: VisiTrax 2.9.5.180 - For more info visit www.synapsa.com
# Normalized: r0:DSETVAR1
#
DISCID=e10f0012
DTITLE=Various Artist - CDX 191 July 1998
DYEAR=1998
DGENRE=
TTITLE0=Keith Harling - Coming back for you
TTITLE1=Shania Twain - From this moment on
TTITLE2=Ricochet - Honky tonk baby
TTITLE3=Alabama - How do you fall in love
TTITLE4=Brooks and Dunn - How long gone
TTITLE5=Sherrie Austin - Innocent man
TTITLE6=Randy Scruggs - I wanna be loved back
TTITLE7=Eddie Rabbitt - Love mey never pass this way again
TTITLE8=Gary Allan - No man in his wrong heart
TTITLE9=Great Divide - Pour me a vacation
TTITLE10=Charlie daniles Band - The devil went down to Georgia
TTITLE11=Bryan White - Tree of hearts
TTITLE12=Tim McGraw - Where the green grass grows
TTITLE13=Lorrie Morgan - You'd think he'd know me better
TTITLE14=Kinleys - You make it seem so easy
TTITLE15=Rodney Carrington - Dancing with a man
TTITLE16=Rodney Carrington - Fred
TTITLE17=Gary Allan - No judgement day
EXTD=
EXTT0=
EXTT1=
EXTT2=
EXTT3=
EXTT4=
EXTT5=
EXTT6=
EXTT7=
EXTT8=
EXTT9=
EXTT10=
EXTT11=
EXTT12=
EXTT13=
EXTT14=
EXTT15=
EXTT16=
EXTT17=
PLAYORDER=
